<mxfile host="app.diagrams.net" modified="2021-12-15T02:47:52.423Z" agent="5.0 (Macintosh; Intel Mac OS X 10_15_7) AppleWebKit/537.36 (KHTML, like Gecko) Chrome/96.0.4664.55 Safari/537.36" etag="I91-NR4d2AUbugnR21Kx" version="15.9.6" type="github">
  <diagram id="MXw0cYcsGM257r_ZbbDP" name="Page-1">
    <mxGraphModel dx="711" dy="463" grid="0" gridSize="10" guides="1" tooltips="1" connect="1" arrows="1" fold="1" page="1" pageScale="1" pageWidth="827" pageHeight="1169" background="none" math="0" shadow="0">
      <root>
        <mxCell id="0" />
        <mxCell id="1" parent="0" />
        <mxCell id="Tlokxd7MjdnbNSqTjhvJ-3" value="" style="rounded=0;orthogonalLoop=1;jettySize=auto;html=1;" edge="1" parent="1" source="Tlokxd7MjdnbNSqTjhvJ-1" target="Tlokxd7MjdnbNSqTjhvJ-2">
          <mxGeometry relative="1" as="geometry" />
        </mxCell>
        <mxCell id="Tlokxd7MjdnbNSqTjhvJ-1" value="苏珊·赖尔" style="rounded=0;whiteSpace=wrap;html=1;sketch=1;fillColor=#ffe6cc;strokeColor=#d79b00;glass=0;shadow=0;imageAspect=1;portConstraintRotation=0;connectable=1;allowArrows=1;perimeter=rectanglePerimeter;" vertex="1" parent="1">
          <mxGeometry x="89" y="242" width="85" height="40" as="geometry" />
        </mxCell>
        <mxCell id="Tlokxd7MjdnbNSqTjhvJ-2" value="" style="whiteSpace=wrap;html=1;fillColor=#ffe6cc;strokeColor=#d79b00;rounded=0;sketch=1;glass=0;shadow=0;" vertex="1" parent="1">
          <mxGeometry x="84.75" y="351" width="93.5" height="47" as="geometry" />
        </mxCell>
      </root>
    </mxGraphModel>
  </diagram>
</mxfile>
